<svg xmlns="http://www.w3.org/2000/svg" width="49.563" height="40.795" viewBox="0 0 49.563 40.795">
  <g id="Group_75" data-name="Group 75" transform="translate(0 0)">
    <path id="Path_62" data-name="Path 62" d="M2680.063,1134.34H2630.5a27.292,27.292,0,0,1,21.224-10.14h7.115A27.369,27.369,0,0,1,2680.063,1134.34Z" transform="translate(-2630.5 -1093.545)" fill="#fe5244"/>
    <path id="Path_63" data-name="Path 63" d="M2683.067,1124.3a7.451,7.451,0,0,1-13.867,2.686,27.3,27.3,0,0,1,11.834-2.686Z" transform="translate(-2659.834 -1093.62)" fill="#fff"/>
    <path id="Path_64" data-name="Path 64" d="M2742.127,1125.918a7.451,7.451,0,0,1-14.327-1.718h4.816A27.61,27.61,0,0,1,2742.127,1125.918Z" transform="translate(-2704.253 -1093.545)" fill="#fff"/>
    <path id="Path_65" data-name="Path 65" d="M2716.595,1079.7v10.987c0,1.718-3.437,3.1-7.647,3.1a21.676,21.676,0,0,1-2.227-.121c-3.146-.387-5.421-1.573-5.421-2.977V1079.7Z" transform="translate(-2684.166 -1059.814)" fill="#a0505a"/>
    <path id="Path_66" data-name="Path 66" d="M2715.578,1081.875c0,4.768-4.162,10.552-8.857,11.689-3.146-.387-5.421-1.573-5.421-2.977V1079.6h14.036Z" transform="translate(-2684.166 -1059.738)" fill="#73325a"/>
    <path id="Path_67" data-name="Path 67" d="M2708.008,1041.989v.266a3.4,3.4,0,0,1-3.388,3.388h-3.243a9.271,9.271,0,0,1-8.422,5.348h-.629a7.519,7.519,0,0,1-7.526-7.526V1035.7c4.816.315,10.938-3.9,10.938-3.9,2.009,7.768,7.744,7.672,10.406,7.163A3.433,3.433,0,0,1,2708.008,1041.989Z" transform="translate(-2671.659 -1023.506)" fill="#a0505a"/>
    <g id="Group_72" data-name="Group 72" transform="translate(31.219 16.498)">
      <path id="Path_68" data-name="Path 68" d="M2759.863,1068.87a.372.372,0,0,1-.363-.363,2.809,2.809,0,0,1,2.807-2.807.363.363,0,1,1,0,.726,2.081,2.081,0,0,0-2.081,2.081A.372.372,0,0,1,2759.863,1068.87Z" transform="translate(-2759.5 -1065.7)" fill="#73325a"/>
    </g>
    <path id="Path_69" data-name="Path 69" d="M2693.4,1019.665h.532a3.4,3.4,0,0,0,3.388-3.388v-.266a3.36,3.36,0,0,0-1.863-3.025,10.854,10.854,0,0,1-2.783.169c-2.759-.218-6.171-1.718-7.623-7.333,0,0-6.123,4.211-10.939,3.9a5.5,5.5,0,0,1-2.492-.7c-3.993-2.275,5.663-12.923,16.747-11.326,8.857,1.283,8.664,11.882,8.494,14.4a11.838,11.838,0,0,1,1.307-.073c6.486,0,11.737,4.985,11.737,11.156a11.03,11.03,0,0,1-5.59,9.511,27.1,27.1,0,0,0-10.915-4.187Z" transform="translate(-2660.974 -997.529)" fill="#ffcf2d"/>
    <g id="Group_73" data-name="Group 73" transform="translate(13.356 13.118)">
      <path id="Path_70" data-name="Path 70" d="M2690.361,1058.551a.181.181,0,0,1-.121-.024.358.358,0,0,1-.218-.46,5.2,5.2,0,0,0-.484-4.09,3.477,3.477,0,0,0-3.437-1.476.366.366,0,1,1-.1-.726,4.241,4.241,0,0,1,4.187,1.839,5.846,5.846,0,0,1,.532,4.695A.455.455,0,0,1,2690.361,1058.551Z" transform="translate(-2685.688 -1051.735)" fill="#73325a"/>
    </g>
    <g id="Group_74" data-name="Group 74" transform="translate(20.738 13.102)">
      <path id="Path_71" data-name="Path 71" d="M2721.735,1053.9a.39.39,0,0,1-.218-.073,8.077,8.077,0,0,0-4.937-1.428.364.364,0,1,1-.048-.726,8.706,8.706,0,0,1,5.421,1.573.354.354,0,0,1,.073.508A.418.418,0,0,1,2721.735,1053.9Z" transform="translate(-2716.19 -1051.666)" fill="#73325a"/>
    </g>
    <path id="Path_72" data-name="Path 72" d="M2699.8,1083.3s.581,3.824,4.525.1A14.886,14.886,0,0,1,2699.8,1083.3Z" transform="translate(-2683.029 -1062.543)" fill="#fff"/>
    <ellipse id="Ellipse_6" data-name="Ellipse 6" cx="0.508" cy="1.137" rx="0.508" ry="1.137" transform="translate(22.337 15.264)" fill="#73325a"/>
    <ellipse id="Ellipse_7" data-name="Ellipse 7" cx="0.436" cy="0.944" rx="0.436" ry="0.944" transform="translate(14.859 15.457)" fill="#73325a"/>
  </g>
</svg>
